<?xml version="1.0" encoding="UTF-8" standalone="no"?>
<!-- Created with Inkscape (http://www.inkscape.org/) -->

<svg
   width="76.92675mm"
   height="76.92675mm"
   viewBox="0 0 76.92675 76.92675"
   version="1.1"
   id="svg1"
   inkscape:version="1.3 (0e150ed, 2023-07-21)"
   sodipodi:docname="LineUpLogo2.svg"
   xmlns:inkscape="http://www.inkscape.org/namespaces/inkscape"
   xmlns:sodipodi="http://sodipodi.sourceforge.net/DTD/sodipodi-0.dtd"
   xmlns="http://www.w3.org/2000/svg"
   xmlns:svg="http://www.w3.org/2000/svg">
  <sodipodi:namedview
     id="namedview1"
     pagecolor="#ffffff"
     bordercolor="#000000"
     borderopacity="0.25"
     inkscape:showpageshadow="2"
     inkscape:pageopacity="0.0"
     inkscape:pagecheckerboard="0"
     inkscape:deskcolor="#d1d1d1"
     inkscape:document-units="mm"
     showguides="true"
     inkscape:zoom="0.84096521"
     inkscape:cx="162.31349"
     inkscape:cy="225.93087"
     inkscape:window-width="1440"
     inkscape:window-height="805"
     inkscape:window-x="0"
     inkscape:window-y="23"
     inkscape:window-maximized="1"
     inkscape:current-layer="layer1" />
  <defs
     id="defs1">
    <inkscape:perspective
       sodipodi:type="inkscape:persp3d"
       inkscape:vp_x="0 : 38.463375 : 1"
       inkscape:vp_y="0 : 1000 : 0"
       inkscape:vp_z="76.92675 : 38.463375 : 1"
       inkscape:persp3d-origin="38.463375 : 25.64225 : 1"
       id="perspective2" />
  </defs>
  <g
     inkscape:label="Layer 1"
     inkscape:groupmode="layer"
     id="layer1"
     transform="translate(-21.314164,-43.337466)">
    <rect
       style="fill:#ddf4ff;fill-opacity:1;stroke:none;stroke-width:0.159808;stroke-linecap:round"
       id="rect1"
       width="76.766945"
       height="76.766945"
       x="21.394068"
       y="43.41737" />
    <path
       style="fill:#388e3c;fill-opacity:1;stroke:#a7a7a7;stroke-width:0.159808;stroke-linecap:round"
       d="M 46.326346,48.843291 59.854947,75.428566 74.956641,48.843291 Z"
       id="path7" />
    <path
       id="path8"
       style="fill:#388e3c;fill-opacity:1;stroke:none;stroke-width:0.164013;stroke-linecap:round"
       d="m 95.622807,88.645295 c -14.560289,3.140777 -16.925306,13.683335 -16.925306,13.683335 0,0 -3.402741,-4.889883 2.2257,-11.953543 -8.740496,3.452568 -11.530512,9.231211 -12.3202,17.772413 l -20.385482,-4.3e-4 C 43.657311,99.221699 46.961212,93.626433 50.709269,89.117101 43.693248,93.084696 40.655112,95.89168 37.782409,106.73153 32.257983,96.199719 28.556227,94.836995 20.048608,92.891547 c 7.871295,6.128655 8.836465,13.820833 8.120952,13.368173 0,0 -2.347894,-9.402353 -10.938351,-9.436113 4.334538,4.377713 4.811233,7.836913 2.559017,12.426633 h -5.082894 v 14.78669 h 88.565138 v -14.78669 h -4.337204 c -1.30299,-4.21576 -1.350861,-9.321448 4.808494,-14.943275 -12.871924,3.564877 -16.241388,14.469405 -16.241388,14.469405 0,0 -3.632829,-11.679586 8.120435,-20.131075 z"
       sodipodi:nodetypes="ccccccccccccccccccc" />
    <ellipse
       style="fill:#ffffff;fill-opacity:1;stroke:none;stroke-width:0.135941;stroke-linecap:round"
       id="path9"
       cx="60.811062"
       cy="116.44371"
       rx="2.2142642"
       ry="1.5850267" />
    <path
       id="path9-2"
       style="fill:#ffffff;fill-opacity:1;stroke:none;stroke-width:0.135941;stroke-linecap:round"
       d="m 52.503316,110.10383 a 2.2142642,1.5850267 0 0 0 -2.214336,1.58491 2.2142642,1.5850267 0 0 0 2.214336,1.58492 2.2142642,1.5850267 0 0 0 0.101802,-0.005 v 0.005 h 19.26084 a 2.2142642,1.5850267 0 0 0 2.213818,-1.58492 2.2142642,1.5850267 0 0 0 -2.213818,-1.58491 h -19.26084 v 0.002 a 2.2142642,1.5850267 0 0 0 -0.101802,-0.002 z" />
    <ellipse
       style="fill:#ffffff;fill-opacity:1;stroke:none;stroke-width:0.135941;stroke-linecap:round"
       id="path9-6"
       cx="85.800888"
       cy="116.44371"
       rx="2.2142642"
       ry="1.5850267" />
    <ellipse
       style="fill:#ffffff;fill-opacity:1;stroke:none;stroke-width:0.135941;stroke-linecap:round"
       id="path9-6-7"
       cx="77.002747"
       cy="116.44371"
       rx="2.2142642"
       ry="1.5850267" />
    <ellipse
       style="fill:#ffffff;fill-opacity:1;stroke:none;stroke-width:0.135941;stroke-linecap:round"
       id="path9-6-8"
       cx="80.077423"
       cy="111.68874"
       rx="2.2142642"
       ry="1.5850267" />
  </g>
</svg>
