<?xml version="1.0" encoding="UTF-8" standalone="no"?>
<svg
   viewBox="0 0 540.1347 685.21948"
   version="1.1"
   id="svg2"
   sodipodi:docname="Soccer.svg"
   inkscape:version="1.3 (0e150ed, 2023-07-21)"
   xmlns:inkscape="http://www.inkscape.org/namespaces/inkscape"
   xmlns:sodipodi="http://sodipodi.sourceforge.net/DTD/sodipodi-0.dtd"
   xmlns="http://www.w3.org/2000/svg"
   xmlns:svg="http://www.w3.org/2000/svg">
  <defs
     id="defs2" />
  <sodipodi:namedview
     id="namedview2"
     pagecolor="#ffffff"
     bordercolor="currentColor"
     borderopacity="0.25"
     inkscape:showpageshadow="2"
     inkscape:pageopacity="0.0"
     inkscape:pagecheckerboard="0"
     inkscape:deskcolor="#d1d1d1"
     inkscape:zoom="1.8541911"
     inkscape:cx="482.95993"
     inkscape:cy="370.51197"
     inkscape:window-width="1312"
     inkscape:window-height="749"
     inkscape:window-x="103"
     inkscape:window-y="23"
     inkscape:window-maximized="0"
     inkscape:current-layer="g2" />
  <title
     id="title1">soccer_field</title>
  <!--         -->
  <!--                  -->
  <!--      -->
  <!--         -->
  <!--      -->
  <!--         -->
  <!--       -->
  <!--         -->
  <g
     id="g2"
     transform="translate(-37.5,-17.5)">
    <title
       id="title2">Layer 1</title>
    <path
       d="M 574.91406,451.49219 V 268.50781 a 91.5,91.5 0 0 0 -15.80273,1.38281 91.5,91.5 0 0 0 -15.40625,4.12696 91.5,91.5 0 0 0 -14.45508,6.74023 91.5,91.5 0 0 0 -13.06445,9.14844 91.5,91.5 0 0 0 -11.2793,11.2793 91.5,91.5 0 0 0 -9.14844,13.06445 91.5,91.5 0 0 0 -6.74023,14.45508 91.5,91.5 0 0 0 -4.12696,15.40625 A 91.5,91.5 0 0 0 483.5,360 a 91.5,91.5 0 0 0 1.39062,15.88867 91.5,91.5 0 0 0 4.12696,15.40625 91.5,91.5 0 0 0 6.74023,14.45508 91.5,91.5 0 0 0 9.14844,13.06445 91.5,91.5 0 0 0 11.2793,11.2793 91.5,91.5 0 0 0 13.06445,9.14844 91.5,91.5 0 0 0 14.45508,6.74023 91.5,91.5 0 0 0 15.40625,4.12695 91.5,91.5 0 0 0 15.80273,1.38282 z"
       style="fill-opacity:0;stroke:currentColor;stroke-width:5"
       id="path2" />
    <circle
       id="svg_4"
       fill="none"
       stroke="currentColor"
       r="2"
       cy="360"
       cx="575" />
    <circle
       id="svg_5"
       fill="none"
       stroke="currentColor"
       r="2"
       cy="360"
       cx="160" />
    <path
       id="svg_7"
       fill-opacity="0"
       stroke-width="5"
       stroke="currentColor"
       d="M 50,324.39999 H 40 v 72.20002 h 10 z" />
    <path
       id="svg_9"
       fill-opacity="0"
       stroke-width="5"
       stroke="currentColor"
       d="m 50,269.39999 h 55 V 451.60001 H 50 Z" />
    <path
       id="svg_11"
       fill-opacity="0"
       stroke-width="5"
       stroke="currentColor"
       d="M 50,159.39999 H 215 V 561.59998 H 50 Z" />
    <path
       id="svg_13"
       fill="none"
       stroke-width="5"
       stroke="currentColor"
       d="m 215,286.875 a 91.5,91.5 0 0 1 0,146.25 z" />
    <path
       id="svg_15"
       fill-opacity="0"
       stroke-width="5"
       stroke="currentColor"
       d="M 50,30 A 10,10 0 0 0 60,20 H 50 Z" />
    <path
       id="svg_16"
       fill-opacity="0"
       stroke-width="5"
       stroke="currentColor"
       d="M 60,700 A 10,10 0 0 0 50,690 v 10 z" />
    <rect
       style="fill:none;fill-opacity:0.940425;stroke:currentColor;stroke-width:5.1;stroke-dasharray:none;stroke-opacity:1"
       id="rect2"
       width="525.2746"
       height="679.92395"
       x="49.810108"
       y="20.245539" />
    <path
       style="fill:none;fill-opacity:0.940425;stroke:#808080;stroke-width:2;stroke-dasharray:4, 2;stroke-dashoffset:0;stroke-opacity:1"
       d="M 48.177966,19.025424 572.16101,359.19492 214.44915,561.31356 51.228814,356.90678"
       id="path3"
       sodipodi:nodetypes="cccc" />
    <path
       style="fill:none;fill-opacity:0.940425;stroke:#808080;stroke-width:2;stroke-dasharray:4, 2;stroke-dashoffset:0;stroke-opacity:1"
       d="m 571.39831,359.19492 -466.01695,-89.23729 -54.915258,89.23729 112.118648,0"
       id="path4"
       sodipodi:nodetypes="cccc" />
    <path
       style="fill:none;fill-opacity:0.940425;stroke:#808080;stroke-width:2;stroke-dasharray:4, 2;stroke-dashoffset:0;stroke-opacity:1"
       d="m 160.29661,360.72034 78.55932,41.18644"
       id="path5" />
    <path
       style="fill:none;fill-opacity:0.940425;stroke:#808080;stroke-width:2;stroke-dasharray:4, 2;stroke-dashoffset:0;stroke-opacity:1"
       d="m 571.96487,360.50672 -32.89845,82.51576"
       id="path1" />
  </g>
</svg>
